<?xml version="1.0" encoding="UTF-8" standalone="no"?>
<!-- Created with Inkscape (http://www.inkscape.org/) -->

<svg
   xmlns:dc="http://purl.org/dc/elements/1.1/"
   xmlns:cc="http://creativecommons.org/ns#"
   xmlns:rdf="http://www.w3.org/1999/02/22-rdf-syntax-ns#"
   xmlns:svg="http://www.w3.org/2000/svg"
   xmlns="http://www.w3.org/2000/svg"
   xmlns:sodipodi="http://sodipodi.sourceforge.net/DTD/sodipodi-0.dtd"
   xmlns:inkscape="http://www.inkscape.org/namespaces/inkscape"
   width="210mm"
   height="297mm"
   viewBox="0 0 210 297"
   version="1.1"
   id="svg8"
   inkscape:version="0.92.3 (2405546, 2018-03-11)"
   sodipodi:docname="ProgressMeter.svg">
  <defs
     id="defs2" />
  <sodipodi:namedview
     id="base"
     pagecolor="#ffffff"
     bordercolor="#666666"
     borderopacity="1.0"
     inkscape:pageopacity="0.0"
     inkscape:pageshadow="2"
     inkscape:zoom="1"
     inkscape:cx="300.19376"
     inkscape:cy="420.2175"
     inkscape:document-units="mm"
     inkscape:current-layer="layer1"
     showgrid="false"
     inkscape:window-width="1366"
     inkscape:window-height="705"
     inkscape:window-x="-8"
     inkscape:window-y="248"
     inkscape:window-maximized="1" />
  <metadata
     id="metadata5">
    <rdf:RDF>
      <cc:Work
         rdf:about="">
        <dc:format>image/svg+xml</dc:format>
        <dc:type
           rdf:resource="http://purl.org/dc/dcmitype/StillImage" />
        <dc:title />
      </cc:Work>
    </rdf:RDF>
  </metadata>
  <g
     inkscape:label="Layer 1"
     inkscape:groupmode="layer"
     id="layer1">
    <path
       style="fill:none;fill-opacity:1;stroke:#000000;stroke-width:2.64583325;stroke-miterlimit:4;stroke-dasharray:none;stroke-opacity:1"
       d="m 46.739236,163.93335 a 39.6875,39.6875 0 0 0 -39.687499,39.68749 39.6875,39.6875 0 0 0 39.687499,39.6875 39.6875,39.6875 0 0 0 39.6875,-39.6875 39.6875,39.6875 0 0 0 -39.6875,-39.68749 z m 0,26.45833 a 13.229167,13.229167 0 0 1 1.32085,0.0661 13.229167,13.229167 0 0 1 1.307412,0.19741 13.229167,13.229167 0 0 1 1.28106,0.32711 13.229167,13.229167 0 0 1 1.242298,0.45372 13.229167,13.229167 0 0 1 1.19063,0.57516 13.229167,13.229167 0 0 1 1.12758,0.69091 13.229167,13.229167 0 0 1 1.05265,0.80047 13.229167,13.229167 0 0 1 0.96738,0.90124 13.229167,13.229167 0 0 1 0.87282,0.99373 13.229167,13.229167 0 0 1 0.76946,1.07539 13.229167,13.229167 0 0 1 0.65784,1.14722 13.229167,13.229167 0 0 1 0.54002,1.20716 13.229167,13.229167 0 0 1 0.41703,1.2547 13.229167,13.229167 0 0 1 0.2899,1.29036 13.229167,13.229167 0 0 1 0.15917,1.31258 13.229167,13.229167 0 0 1 0.0331,0.93586 13.229167,13.229167 0 0 1 -0.0662,1.32086 13.229167,13.229167 0 0 1 -0.1974,1.30741 13.229167,13.229167 0 0 1 -0.32711,1.28106 13.229167,13.229167 0 0 1 -0.45372,1.2423 13.229167,13.229167 0 0 1 -0.57516,1.19062 13.229167,13.229167 0 0 1 -0.69091,1.12758 13.229167,13.229167 0 0 1 -0.80047,1.05265 13.229167,13.229167 0 0 1 -0.90124,0.96739 13.229167,13.229167 0 0 1 -0.99374,0.87281 13.229167,13.229167 0 0 1 -1.07539,0.76946 13.229167,13.229167 0 0 1 -1.14721,0.65784 13.229167,13.229167 0 0 1 -1.20716,0.54002 13.229167,13.229167 0 0 1 -1.254708,0.41703 13.229167,13.229167 0 0 1 -1.290359,0.28991 13.229167,13.229167 0 0 1 -1.312583,0.15916 13.229167,13.229167 0 0 1 -0.93586,0.0331 13.229167,13.229167 0 0 1 -1.32085,-0.0661 13.229167,13.229167 0 0 1 -1.307412,-0.19741 13.229167,13.229167 0 0 1 -1.28106,-0.32711 13.229167,13.229167 0 0 1 -1.2423,-0.45372 13.229167,13.229167 0 0 1 -1.190625,-0.57516 13.229167,13.229167 0 0 1 -1.127581,-0.69091 13.229167,13.229167 0 0 1 -1.05265,-0.80047 13.229167,13.229167 0 0 1 -0.967382,-0.90124 13.229167,13.229167 0 0 1 -0.872816,-0.99373 13.229167,13.229167 0 0 1 -0.769461,-1.07539 13.229167,13.229167 0 0 1 -0.657842,-1.14722 13.229167,13.229167 0 0 1 -0.540017,-1.20716 13.229167,13.229167 0 0 1 -0.417028,-1.2547 13.229167,13.229167 0 0 1 -0.289907,-1.29036 13.229167,13.229167 0 0 1 -0.159162,-1.31258 13.229167,13.229167 0 0 1 -0.03307,-0.93587 13.229167,13.229167 0 0 1 0.06615,-1.32085 13.229167,13.229167 0 0 1 0.197403,-1.30741 13.229167,13.229167 0 0 1 0.327113,-1.28106 13.229167,13.229167 0 0 1 0.45372,-1.2423 13.229167,13.229167 0 0 1 0.575157,-1.19062 13.229167,13.229167 0 0 1 0.690914,-1.12758 13.229167,13.229167 0 0 1 0.800468,-1.05265 13.229167,13.229167 0 0 1 0.901237,-0.96739 13.229167,13.229167 0 0 1 0.993738,-0.87281 13.229167,13.229167 0 0 1 1.075388,-0.76946 13.229167,13.229167 0 0 1 1.147215,-0.65784 13.229167,13.229167 0 0 1 1.207162,-0.54002 13.229167,13.229167 0 0 1 1.254704,-0.41703 13.229167,13.229167 0 0 1 1.29036,-0.28939 13.229167,13.229167 0 0 1 1.312582,-0.15968 13.229167,13.229167 0 0 1 0.93586,-0.0331 z"
       id="path4518"
       inkscape:connector-curvature="0"
       inkscape:export-filename="C:\Dropbox\Alex\Files\Git\TheHerosJourney\Solution\TheHerosJourney.MonoGame\Content\UI\Backgrounds\ProgressMeterFrame.png"
       inkscape:export-xdpi="96"
       inkscape:export-ydpi="96" />
    <path
       style="fill:#00ff6a;fill-opacity:1;stroke:none;stroke-width:10;stroke-miterlimit:4;stroke-dasharray:none;stroke-opacity:1"
       d="M 358 258.51953 L 358 358.51953 A 50.000001 50.000001 0 0 1 362.99219 358.76953 A 50.000001 50.000001 0 0 1 367.93359 359.51562 A 50.000001 50.000001 0 0 1 372.77539 360.75195 A 50.000001 50.000001 0 0 1 376.0625 361.95312 L 412.24414 268.67188 A 150 150 0 0 0 358 258.51953 z "
       id="path4518-9"
       transform="scale(0.26458333)"
       inkscape:export-filename="C:\Dropbox\Alex\Files\Git\TheHerosJourney\Solution\TheHerosJourney.MonoGame\Content\UI\Backgrounds\ProgressMeterChunk.png"
       inkscape:export-xdpi="96"
       inkscape:export-ydpi="96" />
    <path
       style="fill:#ffffff;fill-opacity:1;stroke:none;stroke-width:2.64583325;stroke-miterlimit:4;stroke-dasharray:none;stroke-opacity:1"
       d="m 137.31875,165.2375 a 39.6875,39.6875 0 0 0 -39.687501,39.68749 39.6875,39.6875 0 0 0 39.687501,39.68751 39.6875,39.6875 0 0 0 39.6875,-39.68751 39.6875,39.6875 0 0 0 -39.6875,-39.68749 z m 0,26.45833 a 13.229167,13.229167 0 0 1 1.32085,0.0661 13.229167,13.229167 0 0 1 1.30741,0.19741 13.229167,13.229167 0 0 1 1.28106,0.32711 13.229167,13.229167 0 0 1 1.2423,0.45372 13.229167,13.229167 0 0 1 1.19063,0.57516 13.229167,13.229167 0 0 1 1.12758,0.69091 13.229167,13.229167 0 0 1 1.05265,0.80047 13.229167,13.229167 0 0 1 0.96738,0.90124 13.229167,13.229167 0 0 1 0.87282,0.99373 13.229167,13.229167 0 0 1 0.76946,1.07539 13.229167,13.229167 0 0 1 0.65784,1.14722 13.229167,13.229167 0 0 1 0.54002,1.20716 13.229167,13.229167 0 0 1 0.41703,1.2547 13.229167,13.229167 0 0 1 0.2899,1.29036 13.229167,13.229167 0 0 1 0.15917,1.31258 13.229167,13.229167 0 0 1 0.0331,0.93586 13.229167,13.229167 0 0 1 -0.0662,1.32086 13.229167,13.229167 0 0 1 -0.1974,1.30741 13.229167,13.229167 0 0 1 -0.32711,1.28106 13.229167,13.229167 0 0 1 -0.45372,1.2423 13.229167,13.229167 0 0 1 -0.57516,1.19062 13.229167,13.229167 0 0 1 -0.69091,1.12758 13.229167,13.229167 0 0 1 -0.80047,1.05265 13.229167,13.229167 0 0 1 -0.90124,0.96739 13.229167,13.229167 0 0 1 -0.99374,0.87281 13.229167,13.229167 0 0 1 -1.07539,0.76946 13.229167,13.229167 0 0 1 -1.14721,0.65784 13.229167,13.229167 0 0 1 -1.20716,0.54002 13.229167,13.229167 0 0 1 -1.25471,0.41703 13.229167,13.229167 0 0 1 -1.29036,0.28991 13.229167,13.229167 0 0 1 -1.31258,0.15916 13.229167,13.229167 0 0 1 -0.93586,0.0331 13.229167,13.229167 0 0 1 -1.32085,-0.0661 13.229167,13.229167 0 0 1 -1.30741,-0.1974 13.229167,13.229167 0 0 1 -1.28106,-0.32712 13.229167,13.229167 0 0 1 -1.2423,-0.45371 13.229167,13.229167 0 0 1 -1.19063,-0.57517 13.229167,13.229167 0 0 1 -1.12758,-0.69091 13.229167,13.229167 0 0 1 -1.05265,-0.80047 13.229167,13.229167 0 0 1 -0.96738,-0.90124 13.229167,13.229167 0 0 1 -0.87282,-0.99373 13.229167,13.229167 0 0 1 -0.76946,-1.07539 13.229167,13.229167 0 0 1 -0.65784,-1.14721 13.229167,13.229167 0 0 1 -0.54002,-1.20717 13.229167,13.229167 0 0 1 -0.41703,-1.25469 13.229167,13.229167 0 0 1 -0.2899,-1.29036 13.229167,13.229167 0 0 1 -0.15916,-1.31259 13.229167,13.229167 0 0 1 -0.0331,-0.93586 13.229167,13.229167 0 0 1 0.0662,-1.32085 13.229167,13.229167 0 0 1 0.1974,-1.30741 13.229167,13.229167 0 0 1 0.32711,-1.28107 13.229167,13.229167 0 0 1 0.45372,-1.24229 13.229167,13.229167 0 0 1 0.57516,-1.19062 13.229167,13.229167 0 0 1 0.69091,-1.12758 13.229167,13.229167 0 0 1 0.80047,-1.05265 13.229167,13.229167 0 0 1 0.90124,-0.9674 13.229167,13.229167 0 0 1 0.99373,-0.87281 13.229167,13.229167 0 0 1 1.07539,-0.76946 13.229167,13.229167 0 0 1 1.14722,-0.65784 13.229167,13.229167 0 0 1 1.20716,-0.54002 13.229167,13.229167 0 0 1 1.2547,-0.41703 13.229167,13.229167 0 0 1 1.29036,-0.28938 13.229167,13.229167 0 0 1 1.31259,-0.15969 13.229167,13.229167 0 0 1 0.93586,-0.0331 z"
       id="path4518-4"
       inkscape:connector-curvature="0"
       inkscape:export-filename="C:\Dropbox\Alex\Files\Git\TheHerosJourney\Solution\TheHerosJourney.MonoGame\Content\UI\Backgrounds\ProgressMeterBackground.png"
       inkscape:export-xdpi="96"
       inkscape:export-ydpi="96" />
  </g>
</svg>
